<svg width="22" height="18" viewBox="0 0 22 18" fill="none" xmlns="http://www.w3.org/2000/svg">
<path d="M12.4 0C7.42996 0 3.39996 4.03 3.39996 9H0.399963L4.28996 12.89L4.35996 13.03L8.39996 9H5.39996C5.39996 5.13 8.52996 2 12.4 2C16.27 2 19.4 5.13 19.4 9C19.4 12.87 16.27 16 12.4 16C10.47 16 8.71996 15.21 7.45996 13.94L6.03996 15.36C7.66996 16.99 9.90996 18 12.4 18C17.37 18 21.4 13.97 21.4 9C21.4 4.03 17.37 0 12.4 0ZM11.4 5V10L15.68 12.54L16.4 11.33L12.9 9.25V5H11.4Z" fill="#081A16" fill-opacity="0.6"/>
</svg>
